<mxfile host="app.diagrams.net" agent="Mozilla/5.0 (Macintosh; Intel Mac OS X 10_15_7) AppleWebKit/537.36 (KHTML, like Gecko) Chrome/129.0.0.0 Safari/537.36 Edg/129.0.0.0" version="24.7.16" pages="2">
  <diagram name="第 1 页" id="3QkNNYkvUiTnsItAqlf9">
    <mxGraphModel dx="971" dy="579" grid="1" gridSize="10" guides="1" tooltips="1" connect="1" arrows="1" fold="1" page="1" pageScale="1" pageWidth="3300" pageHeight="2339" math="0" shadow="0">
      <root>
        <mxCell id="0" />
        <mxCell id="1" parent="0" />
        <mxCell id="JLk57HC319bzQErj_UNT-1" value="" style="shape=curlyBracket;whiteSpace=wrap;html=1;rounded=1;labelPosition=left;verticalLabelPosition=middle;align=right;verticalAlign=middle;rotation=90;size=0.5;" vertex="1" parent="1">
          <mxGeometry x="490" y="-65" width="50" height="475" as="geometry" />
        </mxCell>
        <mxCell id="JLk57HC319bzQErj_UNT-6" style="edgeStyle=orthogonalEdgeStyle;rounded=0;orthogonalLoop=1;jettySize=auto;html=1;entryX=0.5;entryY=0;entryDx=0;entryDy=0;" edge="1" parent="1" source="JLk57HC319bzQErj_UNT-2" target="JLk57HC319bzQErj_UNT-5">
          <mxGeometry relative="1" as="geometry" />
        </mxCell>
        <mxCell id="JLk57HC319bzQErj_UNT-2" value="训练样本" style="rounded=0;whiteSpace=wrap;html=1;fontSize=18;fontFamily=Times New Roman;fillColor=#f6f6f6;" vertex="1" parent="1">
          <mxGeometry x="460" y="40" width="110" height="40" as="geometry" />
        </mxCell>
        <mxCell id="JLk57HC319bzQErj_UNT-5" value="样本随机、特征随机" style="rounded=0;whiteSpace=wrap;html=1;fontSize=18;fontFamily=Times New Roman;fillColor=#deedfb;" vertex="1" parent="1">
          <mxGeometry x="415" y="110" width="200" height="40" as="geometry" />
        </mxCell>
        <mxCell id="JLk57HC319bzQErj_UNT-7" value="样本集1，特征集1" style="rounded=0;whiteSpace=wrap;html=1;fontSize=18;fontFamily=Times New Roman;fillColor=#deedfb;" vertex="1" parent="1">
          <mxGeometry x="200" y="200" width="155" height="40" as="geometry" />
        </mxCell>
        <mxCell id="JLk57HC319bzQErj_UNT-10" value="样本集2，特征集2" style="rounded=0;whiteSpace=wrap;html=1;fontSize=18;fontFamily=Times New Roman;fillColor=#deedfb;" vertex="1" parent="1">
          <mxGeometry x="400" y="200" width="155" height="40" as="geometry" />
        </mxCell>
        <mxCell id="JLk57HC319bzQErj_UNT-11" value="样本集n，特征集n" style="rounded=0;whiteSpace=wrap;html=1;fontSize=18;fontFamily=Times New Roman;fillColor=#deedfb;" vertex="1" parent="1">
          <mxGeometry x="680" y="200" width="155" height="40" as="geometry" />
        </mxCell>
        <mxCell id="JLk57HC319bzQErj_UNT-12" value="&lt;b&gt;&lt;font style=&quot;font-size: 20px;&quot;&gt;...&lt;/font&gt;&lt;/b&gt;" style="text;html=1;align=center;verticalAlign=middle;resizable=0;points=[];autosize=1;strokeColor=none;fillColor=none;" vertex="1" parent="1">
          <mxGeometry x="598" y="195" width="40" height="40" as="geometry" />
        </mxCell>
        <mxCell id="JLk57HC319bzQErj_UNT-44" value="" style="group" vertex="1" connectable="0" parent="1">
          <mxGeometry x="200" y="260" width="163" height="128" as="geometry" />
        </mxCell>
        <mxCell id="JLk57HC319bzQErj_UNT-13" value="" style="rounded=1;whiteSpace=wrap;html=1;fillColor=#f6b866;" vertex="1" parent="JLk57HC319bzQErj_UNT-44">
          <mxGeometry x="68" width="25" height="20" as="geometry" />
        </mxCell>
        <mxCell id="JLk57HC319bzQErj_UNT-31" value="" style="endArrow=classic;html=1;rounded=0;exitX=0.5;exitY=1;exitDx=0;exitDy=0;entryX=0.75;entryY=0;entryDx=0;entryDy=0;" edge="1" parent="JLk57HC319bzQErj_UNT-44" source="JLk57HC319bzQErj_UNT-13" target="JLk57HC319bzQErj_UNT-15">
          <mxGeometry width="50" height="50" relative="1" as="geometry">
            <mxPoint x="265" y="70" as="sourcePoint" />
            <mxPoint x="315" y="20" as="targetPoint" />
          </mxGeometry>
        </mxCell>
        <mxCell id="JLk57HC319bzQErj_UNT-32" value="" style="endArrow=classic;html=1;rounded=0;entryX=0.5;entryY=0;entryDx=0;entryDy=0;exitX=0.5;exitY=1;exitDx=0;exitDy=0;" edge="1" parent="JLk57HC319bzQErj_UNT-44" source="JLk57HC319bzQErj_UNT-13" target="JLk57HC319bzQErj_UNT-16">
          <mxGeometry width="50" height="50" relative="1" as="geometry">
            <mxPoint x="135" y="20" as="sourcePoint" />
            <mxPoint x="44" y="60" as="targetPoint" />
          </mxGeometry>
        </mxCell>
        <mxCell id="JLk57HC319bzQErj_UNT-33" value="" style="endArrow=classic;html=1;rounded=0;exitX=0.5;exitY=1;exitDx=0;exitDy=0;entryX=0.5;entryY=0;entryDx=0;entryDy=0;" edge="1" parent="JLk57HC319bzQErj_UNT-44" source="JLk57HC319bzQErj_UNT-15" target="JLk57HC319bzQErj_UNT-20">
          <mxGeometry width="50" height="50" relative="1" as="geometry">
            <mxPoint x="93" y="40" as="sourcePoint" />
            <mxPoint x="54" y="70" as="targetPoint" />
          </mxGeometry>
        </mxCell>
        <mxCell id="JLk57HC319bzQErj_UNT-34" value="" style="endArrow=classic;html=1;rounded=0;exitX=0.5;exitY=1;exitDx=0;exitDy=0;entryX=0.5;entryY=0;entryDx=0;entryDy=0;" edge="1" parent="JLk57HC319bzQErj_UNT-44" source="JLk57HC319bzQErj_UNT-15" target="JLk57HC319bzQErj_UNT-22">
          <mxGeometry width="50" height="50" relative="1" as="geometry">
            <mxPoint x="103" y="50" as="sourcePoint" />
            <mxPoint x="64" y="80" as="targetPoint" />
          </mxGeometry>
        </mxCell>
        <mxCell id="JLk57HC319bzQErj_UNT-15" value="" style="rounded=1;whiteSpace=wrap;html=1;fillColor=#dceefb;" vertex="1" parent="JLk57HC319bzQErj_UNT-44">
          <mxGeometry x="25" y="50" width="25" height="20" as="geometry" />
        </mxCell>
        <mxCell id="JLk57HC319bzQErj_UNT-16" value="" style="rounded=1;whiteSpace=wrap;html=1;fillColor=#f6b866;" vertex="1" parent="JLk57HC319bzQErj_UNT-44">
          <mxGeometry x="110" y="50" width="25" height="20" as="geometry" />
        </mxCell>
        <mxCell id="JLk57HC319bzQErj_UNT-35" value="" style="group" vertex="1" connectable="0" parent="JLk57HC319bzQErj_UNT-44">
          <mxGeometry y="103" width="75" height="25" as="geometry" />
        </mxCell>
        <mxCell id="JLk57HC319bzQErj_UNT-20" value="" style="ellipse;whiteSpace=wrap;html=1;aspect=fixed;fillColor=#dceefb;" vertex="1" parent="JLk57HC319bzQErj_UNT-35">
          <mxGeometry width="25" height="25" as="geometry" />
        </mxCell>
        <mxCell id="JLk57HC319bzQErj_UNT-22" value="" style="ellipse;whiteSpace=wrap;html=1;aspect=fixed;fillColor=#dceefb;" vertex="1" parent="JLk57HC319bzQErj_UNT-35">
          <mxGeometry x="50" width="25" height="25" as="geometry" />
        </mxCell>
        <mxCell id="JLk57HC319bzQErj_UNT-36" value="" style="group" vertex="1" connectable="0" parent="JLk57HC319bzQErj_UNT-44">
          <mxGeometry x="88" y="103" width="75" height="25" as="geometry" />
        </mxCell>
        <mxCell id="JLk57HC319bzQErj_UNT-37" value="" style="ellipse;whiteSpace=wrap;html=1;aspect=fixed;fillColor=#f6b866;" vertex="1" parent="JLk57HC319bzQErj_UNT-36">
          <mxGeometry width="25" height="25" as="geometry" />
        </mxCell>
        <mxCell id="JLk57HC319bzQErj_UNT-38" value="" style="ellipse;whiteSpace=wrap;html=1;aspect=fixed;fillColor=#dceefb;" vertex="1" parent="JLk57HC319bzQErj_UNT-36">
          <mxGeometry x="50" width="25" height="25" as="geometry" />
        </mxCell>
        <mxCell id="JLk57HC319bzQErj_UNT-42" value="" style="endArrow=classic;html=1;rounded=0;exitX=0.5;exitY=1;exitDx=0;exitDy=0;entryX=0.5;entryY=0;entryDx=0;entryDy=0;" edge="1" parent="JLk57HC319bzQErj_UNT-44" source="JLk57HC319bzQErj_UNT-16" target="JLk57HC319bzQErj_UNT-37">
          <mxGeometry width="50" height="50" relative="1" as="geometry">
            <mxPoint x="48" y="80" as="sourcePoint" />
            <mxPoint x="23" y="113" as="targetPoint" />
          </mxGeometry>
        </mxCell>
        <mxCell id="JLk57HC319bzQErj_UNT-43" value="" style="endArrow=classic;html=1;rounded=0;" edge="1" parent="JLk57HC319bzQErj_UNT-44">
          <mxGeometry width="50" height="50" relative="1" as="geometry">
            <mxPoint x="125" y="70" as="sourcePoint" />
            <mxPoint x="150" y="100" as="targetPoint" />
          </mxGeometry>
        </mxCell>
        <mxCell id="JLk57HC319bzQErj_UNT-77" value="&lt;b&gt;&lt;font style=&quot;font-size: 20px;&quot;&gt;...&lt;/font&gt;&lt;/b&gt;" style="text;html=1;align=center;verticalAlign=middle;resizable=0;points=[];autosize=1;strokeColor=none;fillColor=none;" vertex="1" parent="1">
          <mxGeometry x="598" y="300" width="40" height="40" as="geometry" />
        </mxCell>
        <mxCell id="JLk57HC319bzQErj_UNT-46" value="" style="rounded=1;whiteSpace=wrap;html=1;fillColor=#f6b866;" vertex="1" parent="1">
          <mxGeometry x="468" y="260" width="25" height="20" as="geometry" />
        </mxCell>
        <mxCell id="JLk57HC319bzQErj_UNT-47" value="" style="endArrow=classic;html=1;rounded=0;exitX=0.5;exitY=1;exitDx=0;exitDy=0;entryX=0.75;entryY=0;entryDx=0;entryDy=0;" edge="1" parent="1" source="JLk57HC319bzQErj_UNT-46" target="JLk57HC319bzQErj_UNT-51">
          <mxGeometry width="50" height="50" relative="1" as="geometry">
            <mxPoint x="665" y="330" as="sourcePoint" />
            <mxPoint x="715" y="280" as="targetPoint" />
          </mxGeometry>
        </mxCell>
        <mxCell id="JLk57HC319bzQErj_UNT-48" value="" style="endArrow=classic;html=1;rounded=0;entryX=0.5;entryY=0;entryDx=0;entryDy=0;exitX=0.5;exitY=1;exitDx=0;exitDy=0;" edge="1" parent="1" source="JLk57HC319bzQErj_UNT-46" target="JLk57HC319bzQErj_UNT-52">
          <mxGeometry width="50" height="50" relative="1" as="geometry">
            <mxPoint x="535" y="280" as="sourcePoint" />
            <mxPoint x="444" y="320" as="targetPoint" />
          </mxGeometry>
        </mxCell>
        <mxCell id="JLk57HC319bzQErj_UNT-49" value="" style="endArrow=classic;html=1;rounded=0;exitX=0.5;exitY=1;exitDx=0;exitDy=0;entryX=0.5;entryY=0;entryDx=0;entryDy=0;" edge="1" parent="1" source="JLk57HC319bzQErj_UNT-51" target="JLk57HC319bzQErj_UNT-54">
          <mxGeometry width="50" height="50" relative="1" as="geometry">
            <mxPoint x="493" y="300" as="sourcePoint" />
            <mxPoint x="454" y="330" as="targetPoint" />
          </mxGeometry>
        </mxCell>
        <mxCell id="JLk57HC319bzQErj_UNT-50" value="" style="endArrow=classic;html=1;rounded=0;exitX=0.5;exitY=1;exitDx=0;exitDy=0;entryX=0.5;entryY=0;entryDx=0;entryDy=0;" edge="1" parent="1" source="JLk57HC319bzQErj_UNT-51" target="JLk57HC319bzQErj_UNT-55">
          <mxGeometry width="50" height="50" relative="1" as="geometry">
            <mxPoint x="503" y="310" as="sourcePoint" />
            <mxPoint x="464" y="340" as="targetPoint" />
          </mxGeometry>
        </mxCell>
        <mxCell id="JLk57HC319bzQErj_UNT-51" value="" style="rounded=1;whiteSpace=wrap;html=1;fillColor=#f6b866;" vertex="1" parent="1">
          <mxGeometry x="425" y="310" width="25" height="20" as="geometry" />
        </mxCell>
        <mxCell id="JLk57HC319bzQErj_UNT-52" value="" style="rounded=1;whiteSpace=wrap;html=1;fillColor=#dceefb;" vertex="1" parent="1">
          <mxGeometry x="510" y="310" width="25" height="20" as="geometry" />
        </mxCell>
        <mxCell id="JLk57HC319bzQErj_UNT-59" value="" style="endArrow=classic;html=1;rounded=0;exitX=0.5;exitY=1;exitDx=0;exitDy=0;entryX=0.5;entryY=0;entryDx=0;entryDy=0;" edge="1" parent="1" source="JLk57HC319bzQErj_UNT-52" target="JLk57HC319bzQErj_UNT-57">
          <mxGeometry width="50" height="50" relative="1" as="geometry">
            <mxPoint x="448" y="340" as="sourcePoint" />
            <mxPoint x="423" y="373" as="targetPoint" />
          </mxGeometry>
        </mxCell>
        <mxCell id="JLk57HC319bzQErj_UNT-60" value="" style="endArrow=classic;html=1;rounded=0;" edge="1" parent="1">
          <mxGeometry width="50" height="50" relative="1" as="geometry">
            <mxPoint x="525" y="330" as="sourcePoint" />
            <mxPoint x="555" y="360" as="targetPoint" />
          </mxGeometry>
        </mxCell>
        <mxCell id="JLk57HC319bzQErj_UNT-54" value="" style="ellipse;whiteSpace=wrap;html=1;aspect=fixed;fillColor=#dceefb;" vertex="1" parent="1">
          <mxGeometry x="400" y="363" width="25" height="25" as="geometry" />
        </mxCell>
        <mxCell id="JLk57HC319bzQErj_UNT-55" value="" style="ellipse;whiteSpace=wrap;html=1;aspect=fixed;fillColor=#f6b866;" vertex="1" parent="1">
          <mxGeometry x="450" y="363" width="25" height="25" as="geometry" />
        </mxCell>
        <mxCell id="JLk57HC319bzQErj_UNT-57" value="" style="ellipse;whiteSpace=wrap;html=1;aspect=fixed;fillColor=#dceefb;" vertex="1" parent="1">
          <mxGeometry x="488" y="363" width="25" height="25" as="geometry" />
        </mxCell>
        <mxCell id="JLk57HC319bzQErj_UNT-58" value="" style="ellipse;whiteSpace=wrap;html=1;aspect=fixed;fillColor=#dceefb;" vertex="1" parent="1">
          <mxGeometry x="538" y="363" width="25" height="25" as="geometry" />
        </mxCell>
        <mxCell id="JLk57HC319bzQErj_UNT-62" value="" style="rounded=1;whiteSpace=wrap;html=1;fillColor=#f6b866;" vertex="1" parent="1">
          <mxGeometry x="738" y="260" width="25" height="20" as="geometry" />
        </mxCell>
        <mxCell id="JLk57HC319bzQErj_UNT-63" value="" style="endArrow=classic;html=1;rounded=0;exitX=0.5;exitY=1;exitDx=0;exitDy=0;entryX=0.75;entryY=0;entryDx=0;entryDy=0;" edge="1" parent="1" source="JLk57HC319bzQErj_UNT-62" target="JLk57HC319bzQErj_UNT-67">
          <mxGeometry width="50" height="50" relative="1" as="geometry">
            <mxPoint x="935" y="330" as="sourcePoint" />
            <mxPoint x="985" y="280" as="targetPoint" />
          </mxGeometry>
        </mxCell>
        <mxCell id="JLk57HC319bzQErj_UNT-64" value="" style="endArrow=classic;html=1;rounded=0;entryX=0.5;entryY=0;entryDx=0;entryDy=0;exitX=0.5;exitY=1;exitDx=0;exitDy=0;" edge="1" parent="1" source="JLk57HC319bzQErj_UNT-62" target="JLk57HC319bzQErj_UNT-68">
          <mxGeometry width="50" height="50" relative="1" as="geometry">
            <mxPoint x="805" y="280" as="sourcePoint" />
            <mxPoint x="714" y="320" as="targetPoint" />
          </mxGeometry>
        </mxCell>
        <mxCell id="JLk57HC319bzQErj_UNT-65" value="" style="endArrow=classic;html=1;rounded=0;exitX=0.5;exitY=1;exitDx=0;exitDy=0;entryX=0.5;entryY=0;entryDx=0;entryDy=0;" edge="1" parent="1" source="JLk57HC319bzQErj_UNT-67" target="JLk57HC319bzQErj_UNT-70">
          <mxGeometry width="50" height="50" relative="1" as="geometry">
            <mxPoint x="763" y="300" as="sourcePoint" />
            <mxPoint x="724" y="330" as="targetPoint" />
          </mxGeometry>
        </mxCell>
        <mxCell id="JLk57HC319bzQErj_UNT-66" value="" style="endArrow=classic;html=1;rounded=0;exitX=0.5;exitY=1;exitDx=0;exitDy=0;entryX=0.5;entryY=0;entryDx=0;entryDy=0;" edge="1" parent="1" source="JLk57HC319bzQErj_UNT-67" target="JLk57HC319bzQErj_UNT-71">
          <mxGeometry width="50" height="50" relative="1" as="geometry">
            <mxPoint x="773" y="310" as="sourcePoint" />
            <mxPoint x="734" y="340" as="targetPoint" />
          </mxGeometry>
        </mxCell>
        <mxCell id="JLk57HC319bzQErj_UNT-67" value="" style="rounded=1;whiteSpace=wrap;html=1;fillColor=#dceefb;" vertex="1" parent="1">
          <mxGeometry x="695" y="310" width="25" height="20" as="geometry" />
        </mxCell>
        <mxCell id="JLk57HC319bzQErj_UNT-68" value="" style="rounded=1;whiteSpace=wrap;html=1;fillColor=#f6b866;" vertex="1" parent="1">
          <mxGeometry x="780" y="310" width="25" height="20" as="geometry" />
        </mxCell>
        <mxCell id="JLk57HC319bzQErj_UNT-75" value="" style="endArrow=classic;html=1;rounded=0;exitX=0.5;exitY=1;exitDx=0;exitDy=0;entryX=0.5;entryY=0;entryDx=0;entryDy=0;" edge="1" parent="1" source="JLk57HC319bzQErj_UNT-68" target="JLk57HC319bzQErj_UNT-73">
          <mxGeometry width="50" height="50" relative="1" as="geometry">
            <mxPoint x="718" y="340" as="sourcePoint" />
            <mxPoint x="693" y="373" as="targetPoint" />
          </mxGeometry>
        </mxCell>
        <mxCell id="JLk57HC319bzQErj_UNT-76" value="" style="endArrow=classic;html=1;rounded=0;" edge="1" parent="1">
          <mxGeometry width="50" height="50" relative="1" as="geometry">
            <mxPoint x="795" y="330" as="sourcePoint" />
            <mxPoint x="825" y="360" as="targetPoint" />
          </mxGeometry>
        </mxCell>
        <mxCell id="JLk57HC319bzQErj_UNT-70" value="" style="ellipse;whiteSpace=wrap;html=1;aspect=fixed;fillColor=#dceefb;" vertex="1" parent="1">
          <mxGeometry x="670" y="363" width="25" height="25" as="geometry" />
        </mxCell>
        <mxCell id="JLk57HC319bzQErj_UNT-71" value="" style="ellipse;whiteSpace=wrap;html=1;aspect=fixed;fillColor=#dceefb;" vertex="1" parent="1">
          <mxGeometry x="720" y="363" width="25" height="25" as="geometry" />
        </mxCell>
        <mxCell id="JLk57HC319bzQErj_UNT-73" value="" style="ellipse;whiteSpace=wrap;html=1;aspect=fixed;fillColor=#dceefb;" vertex="1" parent="1">
          <mxGeometry x="758" y="363" width="25" height="25" as="geometry" />
        </mxCell>
        <mxCell id="JLk57HC319bzQErj_UNT-74" value="" style="ellipse;whiteSpace=wrap;html=1;aspect=fixed;fillColor=#f6b866;" vertex="1" parent="1">
          <mxGeometry x="808" y="363" width="25" height="25" as="geometry" />
        </mxCell>
        <mxCell id="JLk57HC319bzQErj_UNT-78" value="分类树1" style="rounded=0;whiteSpace=wrap;html=1;fontSize=18;fontFamily=Times New Roman;fillColor=#fee2ba;" vertex="1" parent="1">
          <mxGeometry x="229.25" y="410" width="96.5" height="40" as="geometry" />
        </mxCell>
        <mxCell id="JLk57HC319bzQErj_UNT-79" value="分类树2" style="rounded=0;whiteSpace=wrap;html=1;fontSize=18;fontFamily=Times New Roman;fillColor=#fee2ba;" vertex="1" parent="1">
          <mxGeometry x="432.25" y="410" width="96.5" height="40" as="geometry" />
        </mxCell>
        <mxCell id="JLk57HC319bzQErj_UNT-80" value="分类树n" style="rounded=0;whiteSpace=wrap;html=1;fontSize=18;fontFamily=Times New Roman;fillColor=#fee2ba;" vertex="1" parent="1">
          <mxGeometry x="702.25" y="410" width="96.5" height="40" as="geometry" />
        </mxCell>
        <mxCell id="JLk57HC319bzQErj_UNT-81" value="&lt;b&gt;&lt;font style=&quot;font-size: 20px;&quot;&gt;...&lt;/font&gt;&lt;/b&gt;" style="text;html=1;align=center;verticalAlign=middle;resizable=0;points=[];autosize=1;strokeColor=none;fillColor=none;" vertex="1" parent="1">
          <mxGeometry x="598" y="400" width="40" height="40" as="geometry" />
        </mxCell>
        <mxCell id="JLk57HC319bzQErj_UNT-82" value="投票决定最终结果" style="rounded=0;whiteSpace=wrap;html=1;fontSize=18;fontFamily=Times New Roman;fillColor=#f6f6f6;" vertex="1" parent="1">
          <mxGeometry x="440" y="532" width="150" height="40" as="geometry" />
        </mxCell>
        <mxCell id="JLk57HC319bzQErj_UNT-83" value="" style="endArrow=classic;html=1;rounded=0;exitX=0.5;exitY=1;exitDx=0;exitDy=0;" edge="1" parent="1" source="JLk57HC319bzQErj_UNT-78">
          <mxGeometry width="50" height="50" relative="1" as="geometry">
            <mxPoint x="290" y="550" as="sourcePoint" />
            <mxPoint x="510" y="530" as="targetPoint" />
          </mxGeometry>
        </mxCell>
        <mxCell id="JLk57HC319bzQErj_UNT-87" value="" style="endArrow=classic;html=1;rounded=0;exitX=0.5;exitY=1;exitDx=0;exitDy=0;" edge="1" parent="1" source="JLk57HC319bzQErj_UNT-79">
          <mxGeometry width="50" height="50" relative="1" as="geometry">
            <mxPoint x="288" y="460" as="sourcePoint" />
            <mxPoint x="510" y="530" as="targetPoint" />
          </mxGeometry>
        </mxCell>
        <mxCell id="JLk57HC319bzQErj_UNT-88" value="" style="endArrow=classic;html=1;rounded=0;exitX=0.525;exitY=0.975;exitDx=0;exitDy=0;exitPerimeter=0;" edge="1" parent="1" source="JLk57HC319bzQErj_UNT-81">
          <mxGeometry width="50" height="50" relative="1" as="geometry">
            <mxPoint x="298" y="470" as="sourcePoint" />
            <mxPoint x="510" y="530" as="targetPoint" />
          </mxGeometry>
        </mxCell>
        <mxCell id="JLk57HC319bzQErj_UNT-89" value="" style="endArrow=classic;html=1;rounded=0;exitX=0.5;exitY=1;exitDx=0;exitDy=0;" edge="1" parent="1" source="JLk57HC319bzQErj_UNT-80">
          <mxGeometry width="50" height="50" relative="1" as="geometry">
            <mxPoint x="308" y="480" as="sourcePoint" />
            <mxPoint x="510" y="530" as="targetPoint" />
          </mxGeometry>
        </mxCell>
      </root>
    </mxGraphModel>
  </diagram>
  <diagram id="ICmdHyn2OzBr-RW5ueFM" name="第 2 页">
    <mxGraphModel dx="971" dy="579" grid="1" gridSize="10" guides="1" tooltips="1" connect="1" arrows="1" fold="1" page="1" pageScale="1" pageWidth="3300" pageHeight="2339" math="0" shadow="0">
      <root>
        <mxCell id="0" />
        <mxCell id="1" parent="0" />
      </root>
    </mxGraphModel>
  </diagram>
</mxfile>
